#!OML:ASF E:/inclinewalkrobotboard/Project1/Captureday1/Session1/subject1.ASF
:FULLY-SPECIFIED
:DEGREES
88
root 0 0 0 2.3377887031073996 -4.021509847386092 2.5192561242782214
lowerback 12.170125769971627 0.977460501047109 -0.4658558259948673
upperback -4.120884154810435 1.210063568217618 -0.7546182674279819
thorax -11.243089890444082 0.5591380847519568 -0.8108680186054913
lowerneck -7.060018296757334 1.4071815743157565 4.315859316035266
upperneck 19.07163499512964 2.881904543696286 -8.208448422534406
head 7.136057487256002 0.9960218035711689 -3.17465370125072
rclavicle -1.511922252257436E-15 -1.5694477819039906E-15
rhumerus 17.626522778811037 13.558638257814389 -51.437975692444056
rradius 69.06233576739457
rwrist 23.68373709515823
rhand -32.976007580375814 -49.15445744799523
rfingers 7.125019999999963
rthumb -6.242793995473843 -79.20902226808406
lclavicle 4.71029141413257E-16 3.2256411002446643E-16
lhumerus 18.006790515899574 -13.952247620501051 49.46899726313711
lradius 67.46206573653942
lwrist -18.10195673495388
lhand -44.01499783489309 -60.4430486685712
lfingers 7.1250199999999575
lthumb -16.84702382840822 -31.009236165361752
rfemur -31.69372974221721 -0.6306123517817102 17.110755610122204
rtibia 47.81211505123638
rfoot -24.69906797696119 -17.218821391756684
rtoes -14.616052594726996
lfemur -25.57988904499925 3.2242224990731305 -16.001644348797825
ltibia 47.92304332183699
lfoot -26.311150823185848 4.370581359212714
ltoes -13.906537121030523
89
root 0 0 0 2.6130352714594656 -4.15916391727661 2.376361163501944
lowerback 12.048976521753342 1.0714392021056796 -0.31295466020117424
upperback -4.160890881515012 1.3516385143887608 -0.7782032965786106
thorax -11.198335462072276 0.6229710249378958 -0.9428815573594544
lowerneck -7.015859731253772 1.3745655152597964 4.29960100612065
upperneck 18.958120456820264 2.8289232138553775 -8.130284481293797
head 7.0914611519186135 0.9791598206936628 -3.1492237661599187
rclavicle -1.4902405616238684E-15 -1.2516893320640951E-15
rhumerus 17.95965811405162 14.018529998676565 -51.726186861204965
rradius 69.33076378252164
rwrist 23.36352025446685
rhand -32.98241409720826 -49.10881480627689
rfingers 7.125019999999963
rthumb -6.25042761270733 -79.1543305664747
lclavicle 7.136510710283039E-16 6.575737723005325E-16
lhumerus 18.027561730339798 -14.048849861864808 49.5185461544341
lradius 67.50434873532514
lwrist -18.031330503862755
lhand -44.00119160187762 -60.29774543260875
lfingers 7.1250199999999575
lthumb -16.832116735597204 -30.8614093063831
rfemur -28.328323827033756 0.33406877194518225 18.58037309114208
rtibia 41.97638655815383
rfoot -28.408225908129708 -17.441806813508165
rtoes -17.419425141013594
lfemur -24.406907997635734 2.042952961253252 -16.182829472378263
ltibia 39.53855134963917
lfoot -30.40545809858648 6.974466995804845
ltoes -16.700928984673627
90
root 0 0 0 2.8350612622767613 -4.24948484592732 2.247640103109956
lowerback 11.889577031377064 1.1520173604917736 -0.18637304618435124
upperback -4.1943497290742435 1.4703712536463545 -0.798521031068871
thorax -11.125083795079725 0.6769097721168995 -1.0500464012382038
lowerneck -6.987557545557144 1.3229492592374916 4.269754330293307
upperneck 18.95048648772178 2.748556157089829 -8.037170596273722
head 7.08558356391748 0.9487078967163404 -3.1202782064875567
rclavicle -1.3754843137406583E-15 -7.868890990997943E-16
rhumerus 17.93386987107492 14.03430617706917 -51.80755291726189
rradius 69.30763699182877
rwrist 23.28953639735061
rhand -32.95752935076052 -48.99744669946561
rfingers 7.125019999999962
rthumb -6.2250687987269515 -79.04136161524616
lclavicle 9.345797338643755E-16 1.022190396735102E-15
lhumerus 17.823612920942765 -13.86131053471703 49.53872200320397
lradius 67.31142124744193
lwrist -18.070418080166974
lhand -43.943021412579135 -60.19982315894479
lfingers 7.125019999999956
lthumb -16.775492649128722 -30.75288532117953
rfemur -25.133642320828926 1.7823712318306018 19.890386903166394
rtibia 33.44630898711824
rfoot -29.815449577076475 -16.86134673142184
rtoes -20.256828053529595
lfemur -22.010767839183934 0.513582851046738 -16.111566858482213
ltibia 31.796377156395536
lfoot -29.88199050619393 7.2470397569640115
ltoes -18.829038029486657
91
root 0 0 0 2.8683968599090517 -4.238864428731119 2.225080444296638
lowerback 11.818422408149312 1.1635697874833766 -0.16778624693832012
upperback -4.2070304876502576 1.4860340495009252 -0.8037272665035508
thorax -11.092676482641197 0.6838798833441557 -1.0662087456984843
lowerneck -6.971038540796394 1.2966146818098878 4.26246550154444
upperneck 19.062356058109273 2.709585500608207 -8.023092089973542
head 7.121172994718632 0.9308766526392859 -3.1188140027115425
rclavicle -1.233138094038847E-15 -6.80621319018137E-16
rhumerus 17.608451030555557 13.621784443520385 -51.599703775446315
rradius 69.04393825044639
rwrist 23.531346590654522
rhand -32.93387469047018 -48.95858343906743
rfingers 7.125019999999962
rthumb -6.199787636695268 -79.01246790007279
lclavicle 9.878630637722195E-16 1.0056001729352524E-15
lhumerus 17.60184994255963 -13.554651479997736 49.4905410198305
lradius 67.07332319892038
lwrist -18.203743394162178
lhand -43.90291524009528 -60.292359570098625
lfingers 7.125019999999956
lthumb -16.737980878799988 -30.838781829177943
rfemur -24.14623562663543 2.1284769143594775 19.849737536121015
rtibia 31.883082193615387
rfoot -28.16510376549278 -16.18022222562461
rtoes -21.028860763423836
lfemur -20.50281414406978 -0.05863927982862083 -15.79841800382454
ltibia 30.462265681544057
lfoot -27.315414154265117 5.97462485884884
ltoes -19.61638415305353
92
root 0 0 0 2.8130794295195725 -4.205735084795465 2.26229674513785
lowerback 11.790845129036285 1.152388136546299 -0.20171814208036265
upperback -4.215072363556125 1.4655872630220006 -0.8103366803762656
thorax -11.086187252148786 0.6747479037141821 -1.0497324680409124
lowerneck -6.940641471662906 1.2823341946854747 4.267750919292926
upperneck 19.240902825865582 2.6902554317612237 -8.050632633233873
head 7.176710490111146 0.9191006750621763 -3.131821052463507
rclavicle -9.535441962906559E-16 -7.562783960244038E-16
rhumerus 17.154064609406696 13.021154110408721 -51.25968289674445
rradius 68.67793921141626
rwrist 23.917240074361814
rhand -32.91233169248185 -48.96150339755914
rfingers 7.125019999999962
rthumb -6.1766807837687665 -79.03200899801445
lclavicle 1.0507453702802819E-15 8.386368466751742E-16
lhumerus 17.378254631063008 -13.180766245870704 49.39994328595501
lradius 66.81081266167898
lwrist -18.392745743856082
lhand -43.87506508497168 -60.49826950967684
lfingers 7.125019999999955
lthumb -16.712677711728773 -31.040196766665925
rfemur -24.234490151919445 1.7488020328034035 19.040656138950425
rtibia 34.933984255642685
rfoot -24.807352560296856 -15.39706771516365
rtoes -20.71887632665922
lfemur -19.0930346989946 -0.1430262718782576 -15.420685944145315
ltibia 32.342484523353605
lfoot -24.07976095517698 3.8752103479142637
ltoes -20.27550481133588
93
root 0 0 0 2.659323003837551 -4.157895035596628 2.3780693588185438
lowerback 11.816772399988608 1.1213722328968676 -0.30429750755455365
upperback -4.214363139011673 1.4108398722856954 -0.8233685575478779
thorax -11.108176051135134 0.6509520463456846 -0.9967846943485961
lowerneck -6.901163887199026 1.2865392919085423 4.280845420489243
upperneck 19.429334937428184 2.6991389425626693 -8.105249141171232
head 7.234007962569777 0.918286115584776 -3.152523267404451
rclavicle -6.383538950741768E-16 -9.705684162680026E-16
rhumerus 16.67042983842922 12.363364363594526 -50.85934088867896
rradius 68.288999174278
rwrist 24.365486010970052
rhand -32.89794272219194 -49.007891275302796
rfingers 7.125019999999962
rthumb -6.161184303863671 -79.10078072694125
lclavicle 1.0813402570690081E-15 5.643285707615636E-16
lhumerus 17.219980132431232 -12.833704394491061 49.28124439581363
lradius 66.59701920697714
lwrist -18.596442892392687
lhand -43.87162783540445 -60.78959530598915
lfingers 7.125019999999954
lthumb -16.710959820353878 -31.330631629514908
rfemur -25.928909071726107 0.5622327738774069 17.396643143622402
rtibia 42.92892017663512
rfoot -19.74692119191688 -14.573311356405187
rtoes -18.947290178076106
lfemur -17.794635380202187 0.4057662535856513 -15.109306141112363
ltibia 38.17730134197393
lfoot -20.530656134017427 0.8835270438573186
ltoes -20.853793664890745
94
root 0 0 0 2.3889380623087924 -4.07030808411439 2.5805320514846977
lowerback 11.908478080243736 1.0592996284921155 -0.49097101590218617
upperback -4.1942073405785845 1.3054014586270768 -0.8365950817635744
thorax -11.156193409913152 0.6051271220694623 -0.8892977682701242
lowerneck -6.879819040525869 1.315380833340502 4.296026033454572
upperneck 19.56372168244142 2.744577647054684 -8.171082352461426
head 7.275955917259994 0.9331300217208492 -3.1739234965403957
rclavicle -3.8731615280863557E-16 -1.2948451618846358E-15
rhumerus 16.232224912547004 11.747989179707117 -50.45726842793816
rradius 67.93659070464375
rwrist 24.810500504964804
rhand -32.89334046106521 -49.0938381676477
rfingers 7.125019999999963
rthumb -6.15594494017329 -79.21256957485099
lclavicle 1.0402932313904551E-15 2.2059576748789034E-16
lhumerus 17.177032220538457 -12.600202184080844 49.156013247843006
lradius 66.49304427475985
lwrist -18.76972230953067
lhand -43.89909334452027 -61.11931090969128
lfingers 7.125019999999955
lthumb -16.73878478684486 -31.662988397837115
rfemur -29.033200295329145 -0.9568638821323749 15.5223213933043
rtibia 52.66869108668003
rfoot -14.11819905465406 -13.733272204543782
rtoes -15.768587062610004
lfemur -16.62705147470739 1.6338529637166905 -14.971414925613162
ltibia 48.3777942185791
lfoot -16.451026412915972 -3.1653350215693004
ltoes -20.966687394082538
